<svg width="12" height="14" viewBox="0 0 12 14" fill="none" xmlns="http://www.w3.org/2000/svg">
<path d="M11.1429 5.57146H7.28571V1.71432C7.28571 1.24102 6.90188 0.857178 6.42857 0.857178H5.57143C5.09813 0.857178 4.71429 1.24102 4.71429 1.71432V5.57146H0.857143C0.383839 5.57146 0 5.9553 0 6.42861V7.28575C0 7.75905 0.383839 8.14289 0.857143 8.14289H4.71429V12C4.71429 12.4733 5.09813 12.8572 5.57143 12.8572H6.42857C6.90188 12.8572 7.28571 12.4733 7.28571 12V8.14289H11.1429C11.6162 8.14289 12 7.75905 12 7.28575V6.42861C12 5.9553 11.6162 5.57146 11.1429 5.57146Z" fill="#B5B5B5"/>
</svg>
