<svg width="17" height="19" viewBox="0 0 17 19" fill="none" xmlns="http://www.w3.org/2000/svg">
<g clip-path="url(#clip0)">
<path d="M10.0956 14.8244C10.2511 14.9956 10.2511 15.2731 10.0956 15.4443L8.61224 17.0759C6.64452 19.2404 3.44274 19.2405 1.47486 17.0759C-0.492889 14.9113 -0.492889 11.3893 1.47486 9.22482L2.95821 7.59314C3.1138 7.42199 3.36608 7.42199 3.5217 7.59314L4.83648 9.03939C4.99207 9.21054 4.99207 9.48805 4.83648 9.65923L3.35313 11.2909C2.42105 12.3162 2.42105 13.9845 3.35313 15.0098C4.28521 16.0351 5.80186 16.0351 6.734 15.0098L8.21732 13.3782C8.37291 13.207 8.62519 13.207 8.78081 13.3782L10.0956 14.8244ZM8.21732 5.32043C8.37291 5.49158 8.62519 5.49158 8.78081 5.32043L10.2641 3.68878C11.1962 2.66339 12.7129 2.66346 13.645 3.68878C14.5771 4.71411 14.5771 6.38239 13.645 7.40771L12.1617 9.03936C12.0061 9.21051 12.0061 9.48801 12.1617 9.6592L13.4764 11.1055C13.632 11.2766 13.8843 11.2766 14.0399 11.1055L15.5233 9.47377C17.4911 7.30921 17.4911 3.78725 15.5233 1.62269C13.5555 -0.541836 10.3537 -0.541836 8.38589 1.62269L6.90258 3.25434C6.74699 3.42549 6.74699 3.70299 6.90258 3.87418L8.21732 5.32043ZM16.0143 18.4426L16.7656 17.6162C17.0768 17.2738 17.0768 16.7188 16.7656 16.3765L2.1107 0.256018C1.79949 -0.086316 1.29493 -0.086316 0.983754 0.256018L0.232433 1.08247C-0.0787798 1.4248 -0.0787798 1.97982 0.232433 2.32211L14.8874 18.4426C15.1986 18.7849 15.7032 18.7849 16.0143 18.4426Z" fill="#939393"/>
</g>
<defs>
<clipPath id="clip0">
<rect width="17" height="18.7" fill="white"/>
</clipPath>
</defs>
</svg>
