<svg width="17" height="20" viewBox="0 0 17 20" fill="none" xmlns="http://www.w3.org/2000/svg">
<path d="M15.1786 18.2142H1.82143C0.815469 18.2142 0 17.3988 0 16.3928V3.03566C0 2.0297 0.815469 1.21423 1.82143 1.21423H15.1786C16.1845 1.21423 17 2.0297 17 3.03566V16.3928C17 17.3988 16.1845 18.2142 15.1786 18.2142ZM7.41147 14.4932L14.3936 7.5111C14.6307 7.27401 14.6307 6.88958 14.3936 6.65249L13.535 5.79387C13.2979 5.55678 12.9135 5.55675 12.6763 5.79387L6.98214 11.488L4.32365 8.82955C4.08656 8.59246 3.70213 8.59246 3.465 8.82955L2.60639 9.68816C2.3693 9.92525 2.3693 10.3097 2.60639 10.5468L6.55282 14.4932C6.78994 14.7304 7.17434 14.7304 7.41147 14.4932V14.4932Z" fill="#8AE9D7"/>
</svg>
