<svg width="45" height="47" viewBox="0 0 45 47" fill="none" xmlns="http://www.w3.org/2000/svg">
<path d="M11.9304 19.7329L4.99899 9.08165C9.31754 3.71068 15.7954 0.75302 22.4183 0.725802C26.2561 0.698584 30.1754 1.67842 33.7409 3.7379C37.6784 6.02419 40.6724 9.30846 42.5776 13.0827L23.9516 12.1028C18.6804 11.7943 13.6633 14.7611 11.9304 19.7329ZM14.9153 23.2258C14.9153 27.4173 18.3085 30.8105 22.5 30.8105C26.6915 30.8105 30.0847 27.4173 30.0847 23.2258C30.0847 19.0343 26.6915 15.6411 22.5 15.6411C18.3085 15.6411 14.9153 19.0252 14.9153 23.2258ZM43.4849 15.1331L30.8105 15.7863C34.249 19.8054 34.3034 25.6028 31.4093 30.0484L21.2389 45.6895C25.4577 45.9163 29.8034 44.9909 33.7409 42.7046C43.4849 37.0796 47.4315 25.2853 43.4849 15.1331ZM12.13 27.5443L3.66532 10.8962C1.35181 14.4345 0 18.6804 0 23.2258C0 34.4758 8.2379 43.7933 19.0071 45.4445L24.7863 34.122C19.5605 35.1018 14.5161 32.2349 12.13 27.5443Z" fill="#67EAD2"/>
</svg>
