<svg width="40" height="41" viewBox="0 0 40 41" fill="none" xmlns="http://www.w3.org/2000/svg">
<path d="M10.6048 17.5404L4.44355 8.07262C8.28226 3.29843 14.0403 0.669398 19.9274 0.645205C23.3387 0.621011 26.8226 1.49198 29.9919 3.32262C33.4919 5.35488 36.1532 8.27424 37.8468 11.6291L21.2903 10.7581C16.6048 10.4839 12.1452 13.121 10.6048 17.5404ZM13.2581 20.6452C13.2581 24.371 16.2742 27.3871 20 27.3871C23.7258 27.3871 26.7419 24.371 26.7419 20.6452C26.7419 16.9194 23.7258 13.9033 20 13.9033C16.2742 13.9033 13.2581 16.9113 13.2581 20.6452ZM38.6532 13.4517L27.3871 14.0323C30.4435 17.6049 30.4919 22.7581 27.9194 26.7097L18.879 40.6129C22.629 40.8146 26.4919 39.992 29.9919 37.9597C38.6532 32.9597 42.1613 22.4758 38.6532 13.4517ZM10.7823 24.4839L3.25806 9.68553C1.20161 12.8307 0 16.6049 0 20.6452C0 30.6452 7.32258 38.9275 16.8952 40.3952L22.0323 30.3307C17.3871 31.2017 12.9032 28.6533 10.7823 24.4839Z" fill="#67EAD2"/>
</svg>
