<svg width="15" height="14" viewBox="0 0 15 14" fill="none" xmlns="http://www.w3.org/2000/svg">
<g clip-path="url(#clip0)">
<path d="M10.4844 2.16675L12.8333 4.51571C12.9323 4.61466 12.9323 4.77612 12.8333 4.87508L7.14583 10.5626L4.72917 10.8308C4.40625 10.8673 4.13281 10.5938 4.16927 10.2709L4.4375 7.85425L10.125 2.16675C10.224 2.06779 10.3854 2.06779 10.4844 2.16675ZM14.7031 1.57039L13.4323 0.299561C13.0365 -0.0962728 12.3932 -0.0962728 11.9948 0.299561L11.0729 1.22144C10.974 1.32039 10.974 1.48185 11.0729 1.58081L13.4219 3.92977C13.5208 4.02873 13.6823 4.02873 13.7812 3.92977L14.7031 3.00789C15.099 2.60946 15.099 1.96623 14.7031 1.57039V1.57039ZM10 9.01571V11.6667H1.66667V3.33341H7.65104C7.73437 3.33341 7.8125 3.29956 7.8724 3.24227L8.91406 2.2006C9.11198 2.00269 8.97135 1.66675 8.69271 1.66675H1.25C0.559896 1.66675 0 2.22664 0 2.91675V12.0834C0 12.7735 0.559896 13.3334 1.25 13.3334H10.4167C11.1068 13.3334 11.6667 12.7735 11.6667 12.0834V7.97404C11.6667 7.69539 11.3307 7.55737 11.1328 7.75269L10.0911 8.79435C10.0339 8.85425 10 8.93237 10 9.01571Z" fill="#67EAD2"/>
</g>
<defs>
<clipPath id="clip0">
<rect width="15" height="13.3333" fill="white"/>
</clipPath>
</defs>
</svg>
