<svg width="11" height="13" viewBox="0 0 11 13" fill="none" xmlns="http://www.w3.org/2000/svg">
<path d="M10.2143 5.10714H6.67857V1.57143C6.67857 1.13757 6.32672 0.785715 5.89286 0.785715H5.10714C4.67328 0.785715 4.32143 1.13757 4.32143 1.57143V5.10714H0.785714C0.351853 5.10714 0 5.459 0 5.89286V6.67857C0 7.11243 0.351853 7.46429 0.785714 7.46429H4.32143V11C4.32143 11.4339 4.67328 11.7857 5.10714 11.7857H5.89286C6.32672 11.7857 6.67857 11.4339 6.67857 11V7.46429H10.2143C10.6481 7.46429 11 7.11243 11 6.67857V5.89286C11 5.459 10.6481 5.10714 10.2143 5.10714Z" fill="#67EAD2"/>
</svg>
