<svg width="14" height="14" viewBox="0 0 14 14" fill="none" xmlns="http://www.w3.org/2000/svg">
<path d="M10.9375 1.4793C12.6602 2.70977 13.7813 4.72227 13.7813 7C13.7813 10.7406 10.7516 13.773 7.01368 13.7813C3.28126 13.7895 0.224224 10.7461 0.218755 7.01094C0.216021 4.7332 1.33711 2.71523 3.05704 1.48203C3.37696 1.25508 3.82266 1.35078 4.01407 1.69258L4.4461 2.46094C4.60743 2.74805 4.53086 3.11172 4.26563 3.30859C3.13086 4.15078 2.40626 5.48516 2.40626 6.99727C2.40352 9.52109 4.44336 11.5938 7.00001 11.5938C9.50469 11.5938 11.6102 9.56484 11.5938 6.96992C11.5856 5.55352 10.9184 4.18633 9.73165 3.30586C9.46641 3.10898 9.39258 2.74531 9.55391 2.46094L9.98594 1.69258C10.1774 1.35352 10.6203 1.25234 10.9375 1.4793ZM8.09376 7.21875V0.65625C8.09376 0.292578 7.80118 0 7.43751 0H6.56251C6.19883 0 5.90626 0.292578 5.90626 0.65625V7.21875C5.90626 7.58242 6.19883 7.875 6.56251 7.875H7.43751C7.80118 7.875 8.09376 7.58242 8.09376 7.21875Z" fill="#A9A9A9"/>
</svg>
