<svg width="12" height="13" viewBox="0 0 12 13" fill="none" xmlns="http://www.w3.org/2000/svg">
<g clip-path="url(#clip0)">
<path d="M3.65625 12.1621H1.21875C0.545898 12.1621 0 11.6162 0 10.9434V2.00586C0 1.33301 0.545898 0.787109 1.21875 0.787109H3.65625C4.3291 0.787109 4.875 1.33301 4.875 2.00586V10.9434C4.875 11.6162 4.3291 12.1621 3.65625 12.1621ZM11.375 10.9434V2.00586C11.375 1.33301 10.8291 0.787109 10.1562 0.787109H7.71875C7.0459 0.787109 6.5 1.33301 6.5 2.00586V10.9434C6.5 11.6162 7.0459 12.1621 7.71875 12.1621H10.1562C10.8291 12.1621 11.375 11.6162 11.375 10.9434Z" fill="#909090"/>
</g>
<defs>
<clipPath id="clip0">
<rect width="11.375" height="13" fill="white"/>
</clipPath>
</defs>
</svg>
