<svg width="13" height="13" viewBox="0 0 13 13" fill="none" xmlns="http://www.w3.org/2000/svg">
<path d="M6.51155 0.203135C8.19416 0.206157 9.72187 0.869208 10.8498 1.94709L11.7566 1.04026C12.1405 0.656383 12.7969 0.928266 12.7969 1.47117V4.87501C12.7969 5.21156 12.5241 5.48439 12.1875 5.48439H8.78366C8.24076 5.48439 7.96887 4.82801 8.35275 4.44411L9.41281 3.38405C8.62916 2.65028 7.61513 2.24383 6.53783 2.23454C4.19179 2.21428 2.21424 4.11286 2.23453 6.53678C2.25377 8.83618 4.11795 10.7656 6.5 10.7656C7.54424 10.7656 8.53117 10.393 9.30894 9.7105C9.42937 9.60485 9.61124 9.61128 9.72453 9.72454L10.7316 10.7316C10.8553 10.8553 10.8492 11.057 10.7193 11.1742C9.60279 12.1828 8.12312 12.7969 6.5 12.7969C3.02235 12.7969 0.20315 9.97769 0.203125 6.50006C0.2031 3.0264 3.03789 0.196915 6.51155 0.203135Z" fill="#909090"/>
</svg>
