<svg width="15" height="16" viewBox="0 0 15 16" fill="none" xmlns="http://www.w3.org/2000/svg">
<g clip-path="url(#clip0)">
<path d="M13.3065 4.83894C14.1986 4.83894 14.9183 4.04357 14.9183 3.06374C14.9183 2.30769 13.9597 0.78047 13.5212 0.121196C13.4123 -0.0390864 13.1976 -0.0390864 13.0917 0.121196C12.6532 0.78047 11.6946 2.30769 11.6946 3.06374C11.6946 4.04357 12.4143 4.83894 13.3065 4.83894ZM7.5 12.097C9.06956 12.097 10.9869 11.102 11.2288 9.67765C11.2802 9.37825 10.996 9.11817 10.6935 9.21495C9.91028 9.46595 8.74597 9.61111 7.5 9.61111C6.25403 9.61111 5.09274 9.46595 4.30645 9.21495C4.01008 9.1212 3.71976 9.37523 3.77117 9.67765C4.0131 11.102 5.93044 12.097 7.5 12.097ZM11.4405 7.00728C11.5494 6.97402 11.622 6.8712 11.6129 6.75628C11.5131 5.48309 10.6391 4.597 9.91935 4.597C9.1996 4.597 8.3256 5.48309 8.22581 6.75628C8.21673 6.86817 8.28931 6.97402 8.39819 7.00728C8.50403 7.04055 8.62198 6.99216 8.67943 6.89539L8.96673 6.38128C9.1996 5.96696 9.54738 5.72805 9.91935 5.72805C10.2913 5.72805 10.6391 5.96696 10.872 6.38128L11.1593 6.89539C11.2228 7.00426 11.3468 7.0345 11.4405 7.00728ZM14.625 5.40749C13.881 5.88228 13.2339 5.79761 13.2218 5.79761C13.4304 6.40849 13.5484 7.06172 13.5484 7.74216C13.5484 11.0778 10.8357 13.7905 7.5 13.7905C4.16431 13.7905 1.45161 11.0778 1.45161 7.74216C1.45161 4.40648 4.16431 1.69378 7.5 1.69378C8.70363 1.69378 9.82258 2.05063 10.7661 2.65849C10.8175 2.3712 10.9567 1.92966 11.2863 1.27644C10.1734 0.623212 8.88206 0.242164 7.5 0.242164C3.35685 0.242164 0 3.59902 0 7.74216C0 11.8853 3.35685 15.2422 7.5 15.2422C11.6431 15.2422 15 11.8853 15 7.74216C15 6.92563 14.8669 6.14236 14.625 5.40749ZM5.08065 5.72805C5.45262 5.72805 5.8004 5.96696 6.03327 6.38128L6.32056 6.89539C6.38407 7.00728 6.50806 7.03753 6.60181 7.00728C6.71069 6.97402 6.78327 6.8712 6.77419 6.75628C6.6744 5.48309 5.8004 4.597 5.08065 4.597C4.36089 4.597 3.4869 5.48309 3.3871 6.75628C3.37802 6.86817 3.4506 6.97402 3.55948 7.00728C3.66532 7.04055 3.78327 6.99216 3.84073 6.89539L4.12802 6.38128C4.36089 5.96394 4.70867 5.72805 5.08065 5.72805Z" fill="#B1B1B1"/>
</g>
<defs>
<clipPath id="clip0">
<rect width="15" height="15.4839" fill="white"/>
</clipPath>
</defs>
</svg>
