<svg width="11" height="13" viewBox="0 0 11 13" fill="none" xmlns="http://www.w3.org/2000/svg">
<path d="M10.6548 3.19057L8.5952 1.13097C8.37417 0.90994 8.0744 0.785768 7.76183 0.785767H1.17857C0.527656 0.785767 0 1.31342 0 1.96434V10.6072C0 11.2581 0.527656 11.7858 1.17857 11.7858H9.82143C10.4723 11.7858 11 11.2581 11 10.6072V4.02394C11 3.71136 10.8758 3.41159 10.6548 3.19057ZM5.5 10.2143C4.63213 10.2143 3.92857 9.51078 3.92857 8.64291C3.92857 7.77504 4.63213 7.07148 5.5 7.07148C6.36787 7.07148 7.07143 7.77504 7.07143 8.64291C7.07143 9.51078 6.36787 10.2143 5.5 10.2143ZM7.85714 2.73728V5.20541C7.85714 5.36813 7.72522 5.50005 7.5625 5.50005H1.86607C1.70335 5.50005 1.57143 5.36813 1.57143 5.20541V2.65184C1.57143 2.48912 1.70335 2.3572 1.86607 2.3572H7.47705C7.55521 2.3572 7.63015 2.38823 7.68539 2.4435L7.77084 2.52895C7.7982 2.5563 7.81991 2.58878 7.83472 2.62453C7.84953 2.66028 7.85715 2.69859 7.85714 2.73728Z" fill="#67EAD2"/>
</svg>
