<svg width="20" height="20" viewBox="0 0 20 20" fill="none" xmlns="http://www.w3.org/2000/svg">
<path d="M19.0388 12.3319L17.3748 11.371C17.5427 10.4648 17.5427 9.53507 17.3748 8.62882L19.0388 7.66788C19.2302 7.55851 19.3162 7.33195 19.2537 7.12101C18.8201 5.73038 18.0818 4.47257 17.1169 3.4257C16.9685 3.26554 16.7263 3.22648 16.5388 3.33585L14.8748 4.29679C14.1755 3.69523 13.3708 3.23038 12.4998 2.9257V1.00773C12.4998 0.788977 12.3474 0.597571 12.1326 0.550696C10.699 0.230383 9.23022 0.246008 7.86694 0.550696C7.65209 0.597571 7.49975 0.788977 7.49975 1.00773V2.9296C6.63256 3.2382 5.82788 3.70304 5.12475 4.3007L3.46459 3.33976C3.27319 3.23038 3.03491 3.26554 2.88647 3.4296C1.92163 4.47257 1.18334 5.73038 0.749751 7.12491C0.683345 7.33585 0.773188 7.56241 0.964595 7.67179L2.62866 8.63273C2.46069 9.53898 2.46069 10.4687 2.62866 11.3749L0.964595 12.3359C0.773188 12.4452 0.687251 12.6718 0.749751 12.8827C1.18334 14.2734 1.92163 15.5312 2.88647 16.578C3.03491 16.7382 3.27709 16.7773 3.46459 16.6679L5.12866 15.7069C5.82788 16.3085 6.63256 16.7734 7.50366 17.078V18.9999C7.50366 19.2187 7.656 19.4101 7.87084 19.4569C9.30444 19.7773 10.7732 19.7616 12.1365 19.4569C12.3513 19.4101 12.5037 19.2187 12.5037 18.9999V17.078C13.3708 16.7694 14.1755 16.3046 14.8787 15.7069L16.5427 16.6679C16.7341 16.7773 16.9724 16.7421 17.1208 16.578C18.0857 15.5351 18.824 14.2773 19.2576 12.8827C19.3162 12.6679 19.2302 12.4413 19.0388 12.3319ZM9.99975 13.1249C8.27709 13.1249 6.87475 11.7226 6.87475 9.99991C6.87475 8.27726 8.27709 6.87491 9.99975 6.87491C11.7224 6.87491 13.1248 8.27726 13.1248 9.99991C13.1248 11.7226 11.7224 13.1249 9.99975 13.1249Z" fill="#939393"/>
</svg>
