<svg width="10" height="15" viewBox="0 0 10 15" fill="none" xmlns="http://www.w3.org/2000/svg">
<g clip-path="url(#clip0)">
<path d="M6.89545 7.27272L9.73835 4.42982C10.0872 4.08096 10.0872 3.51533 9.73835 3.16619L9.10653 2.53437C8.75767 2.1855 8.19205 2.1855 7.8429 2.53437L5 5.37727L2.1571 2.53437C1.80824 2.1855 1.24261 2.1855 0.893466 2.53437L0.261648 3.16619C-0.0872159 3.51505 -0.0872159 4.08067 0.261648 4.42982L3.10455 7.27272L0.261648 10.1156C-0.0872159 10.4645 -0.0872159 11.0301 0.261648 11.3793L0.893466 12.0111C1.24233 12.3599 1.80824 12.3599 2.1571 12.0111L5 9.16818L7.8429 12.0111C8.19176 12.3599 8.75767 12.3599 9.10653 12.0111L9.73835 11.3793C10.0872 11.0304 10.0872 10.4648 9.73835 10.1156L6.89545 7.27272Z" fill="#B6B6B6"/>
</g>
<defs>
<clipPath id="clip0">
<rect width="10" height="14.5455" fill="white"/>
</clipPath>
</defs>
</svg>
