<svg width="20" height="20" viewBox="0 0 20 20" fill="none" xmlns="http://www.w3.org/2000/svg">
<path d="M10.0178 0.312493C12.6064 0.317141 14.9567 1.33722 16.692 2.9955L18.0871 1.60038C18.6777 1.0098 19.6875 1.42808 19.6875 2.26331V7.49999C19.6875 8.01777 19.2678 8.43749 18.75 8.43749H13.5133C12.6781 8.43749 12.2598 7.42769 12.8504 6.83706L14.4812 5.2062C13.2756 4.07734 11.7156 3.45202 10.0582 3.43773C6.44891 3.40656 3.40652 6.32745 3.43773 10.0566C3.46734 13.5941 6.33531 16.5625 10 16.5625C11.6065 16.5625 13.1249 15.9891 14.3214 14.9392C14.5067 14.7767 14.7865 14.7866 14.9608 14.9608L16.5101 16.5101C16.7004 16.7004 16.691 17.0107 16.4913 17.1911C14.7735 18.7427 12.4971 19.6875 10 19.6875C4.64977 19.6875 0.312539 15.3503 0.3125 10.0001C0.312461 4.65597 4.67367 0.302923 10.0178 0.312493Z" fill="#C7C7C7" fill-opacity="0.6"/>
</svg>
