<svg width="35" height="39" viewBox="0 0 35 39" fill="none" xmlns="http://www.w3.org/2000/svg">
<path d="M20.7849 30.5206C21.1052 30.873 21.1052 31.4443 20.7849 31.7968L17.731 35.156C13.6798 39.6123 7.08794 39.6126 3.03641 35.156C-1.01484 30.6996 -1.01484 23.4484 3.03641 18.9921L6.09037 15.6327C6.4107 15.2803 6.9301 15.2803 7.2505 15.6327L9.95739 18.6103C10.2777 18.9627 10.2777 19.534 9.95739 19.8864L6.90344 23.2457C4.98445 25.3567 4.98445 28.7914 6.90344 30.9023C8.82242 33.0132 11.9449 33.0133 13.8641 30.9023L16.918 27.543C17.2383 27.1907 17.7577 27.1907 18.0781 27.543L20.7849 30.5206ZM16.918 10.9536C17.2383 11.306 17.7577 11.306 18.0781 10.9536L21.132 7.59432C23.051 5.48321 26.1735 5.48336 28.0926 7.59432C30.0116 9.70528 30.0116 13.14 28.0926 15.2509L25.0386 18.6102C24.7183 18.9626 24.7183 19.5339 25.0386 19.8864L27.7455 22.8639C28.0659 23.2163 28.5853 23.2163 28.9057 22.8639L31.9596 19.5046C36.0109 15.0481 36.0109 7.79705 31.9596 3.3406C27.9082 -1.11578 21.3164 -1.11578 17.265 3.3406L14.2111 6.69987C13.8908 7.05224 13.8908 7.62357 14.2111 7.97601L16.918 10.9536ZM32.9707 37.9698L34.5174 36.2683C35.1582 35.5635 35.1582 34.4209 34.5174 33.7161L4.3455 0.526865C3.70476 -0.177941 2.66597 -0.177941 2.02531 0.526865L0.478474 2.22838C-0.162258 2.93319 -0.162258 4.07586 0.478474 4.78059L30.6505 37.9698C31.2912 38.6745 32.33 38.6745 32.9707 37.9698Z" fill="#67EAD2"/>
</svg>
