<svg width="30" height="33" viewBox="0 0 30 33" fill="none" xmlns="http://www.w3.org/2000/svg">
<path d="M17.8155 26.1603C18.09 26.4623 18.09 26.952 17.8155 27.2541L15.1978 30.1335C11.7254 33.9531 6.0752 33.9534 2.60247 30.1335C-0.870034 26.3137 -0.870034 20.0984 2.60247 16.2786L5.22014 13.3992C5.49471 13.0972 5.93991 13.0972 6.21454 13.3992L8.53473 15.9514C8.8093 16.2534 8.8093 16.7431 8.53473 17.0452L5.91706 19.9246C4.27221 21.734 4.27221 24.678 5.91706 26.4874C7.5619 28.2967 10.2383 28.2968 11.8833 26.4874L14.5009 23.608C14.7755 23.306 15.2207 23.306 15.4953 23.608L17.8155 26.1603ZM14.5009 9.38852C14.7755 9.69055 15.2207 9.69055 15.4953 9.38852L18.1129 6.50914C19.7578 4.69962 22.4342 4.69975 24.0792 6.50914C25.724 8.31853 25.724 11.2626 24.0792 13.072L21.4615 15.9513C21.1869 16.2534 21.1869 16.7431 21.4615 17.0452L23.7817 19.5974C24.0563 19.8994 24.5015 19.8994 24.7761 19.5974L27.3938 16.7179C30.8663 12.8981 30.8663 6.68291 27.3938 2.86309C23.9212 -0.956659 18.271 -0.956659 14.7984 2.86309L12.1808 5.74247C11.9062 6.0445 11.9062 6.53421 12.1808 6.8363L14.5009 9.38852ZM28.2604 32.5452L29.5862 31.0869C30.1354 30.4827 30.1354 29.5033 29.5862 28.8993L3.72454 0.451319C3.17534 -0.1528 2.28495 -0.1528 1.73581 0.451319L0.409946 1.90976C-0.139253 2.51388 -0.139253 3.49331 0.409946 4.09737L26.2717 32.5452C26.8209 33.1493 27.7112 33.1493 28.2604 32.5452Z" fill="#67EAD2"/>
</svg>
